# xmcd
#
# Track frame offsets:
#	180
#	15689
#	34039
#	51701
#	76147
#	98158
#	121726
#	138720
#	161965
#	174898
#	197779
#
# Disc length: 2846 seconds
#
# Revision: 3
# Processed by: cddbd v1.5.2PL0 Copyright (c) Steve Scherf et al.
# Submitted via: audiograbber 1.83.01
#
DISCID=910b1c0b
DTITLE=Connor Band, Joanna - Rock and roll gypsy
DYEAR=1994
DGENRE=Blues
TTITLE0=Never been rocked enough
TTITLE1=Rock and roll gypsy
TTITLE2=Howlin'
TTITLE3=Slipping away
TTITLE4=Rain on my window
TTITLE5=Think about me
TTITLE6=Driving wheel
TTITLE7=You're so fine
TTITLE8=Fire
TTITLE9=You're going with me
TTITLE10=Child from two worlds
EXTD=
EXTT0=
EXTT1=
EXTT2=
EXTT3=
EXTT4=
EXTT5=
EXTT6=
EXTT7=
EXTT8=
EXTT9=
EXTT10=
PLAYORDER=
